<?xml version="1.0" standalone="no"?><!DOCTYPE svg PUBLIC "-//W3C//DTD SVG 1.1//EN" "http://www.w3.org/Graphics/SVG/1.1/DTD/svg11.dtd"><svg t="1500026152937" class="icon" style="" viewBox="0 0 1024 1024" version="1.1" xmlns="http://www.w3.org/2000/svg" p-id="2371" xmlns:xlink="http://www.w3.org/1999/xlink" width="200" height="200"><defs><style type="text/css"></style></defs><path d="M451.174 697.83l-20.975 20.975 81.83 81.859L512 800.664c-14.5 0-28.855-0.377-43.022-1.102C263.165 789.205 96.667 705.623 96.667 607.83c0-24.598 10.632-48.252 29.667-70.111l0-40.834C88.67 529.549 67 567.414 67 607.83c0 114.48 172.988 208.738 395.372 221.096 13.414 0.738 27.117 1.014 40.85 1.158l-73.008 72.414 20.975 20.975 91.839-91.854 20.976-20.99-20.976-20.975L451.174 697.83z" p-id="2372" fill="#8a8a8a"></path><path d="M320.644 348.479c44.978 0 81.583-36.997 81.583-82.438 0-45.471-36.605-82.438-81.583-82.438-44.963 0-81.583 36.967-81.583 82.438C239.061 311.482 275.681 348.479 320.644 348.479zM320.644 207.33c31.912 0 57.856 26.335 57.856 58.71s-25.944 58.71-57.856 58.71c-31.897 0-57.841-26.335-57.841-58.71S288.747 207.33 320.644 207.33z" p-id="2373" fill="#8a8a8a"></path><path d="M897.667 496.884l0 40.834c19.034 21.859 29.666 45.514 29.666 70.111 0 91.84-146.813 171.119-335.141 189.037l13.762 13.762-16.253 16.254C798.411 808.486 957 717.443 957 607.83 957 567.414 935.344 529.549 897.667 496.884z" p-id="2374" fill="#8a8a8a"></path><path d="M853.167 100.527 170.833 100.527l0 519.167 682.334 0L853.167 100.527zM823.5 590.027 224.749 590.027l178.435-143.452 125.924 85.161L823.5 331.284 823.5 590.027zM823.5 294.288l-295.219 201.09L402.024 409.97 200.5 571.283 200.5 130.194l623 0L823.5 294.288z" p-id="2375" fill="#8a8a8a"></path></svg>